<svg width="468.293" height="468.293" xmlns="http://www.w3.org/2000/svg">

 <g>
  <title>background</title>
  <rect fill="none" id="canvas_background" height="602" width="802" y="-1" x="-1"/>
 </g>
 <g>
  <title>Layer 1</title>
  <path id="svg_1" fill="#64798A" d="m67.139,61.421l0,393.421c0,7.428 6.022,13.45 13.45,13.45l307.115,0c7.428,0 13.45,-6.022 13.45,-13.45l0,-393.421c0,-7.428 -6.022,-13.45 -13.45,-13.45l-307.115,0c-7.429,0 -13.45,6.022 -13.45,13.45z"/>
  <path id="svg_2" fill="#EBF0F3" d="m374.254,74.872l0,279.094c-47.801,13.641 -80.443,39.875 -87.427,87.427l-192.788,0l0,-366.521c0,0 280.215,0 280.215,0z"/>
  <polygon id="svg_3" fill="#D5D6DB" points="374.254,353.965 286.827,441.392 286.827,353.965 "/>
  <path id="svg_4" fill="#2F4859" d="m267.772,33.626c0,-18.571 -15.055,-33.626 -33.626,-33.626s-33.626,15.055 -33.626,33.626l-34.815,0c-5.506,0 -9.969,4.463 -9.969,9.969l0,37.225c0,5.506 4.463,9.969 9.969,9.969l136.882,0c5.506,0 9.969,-4.463 9.969,-9.969l0,-37.225c0,-5.506 -4.463,-9.969 -9.969,-9.969l-34.815,0z"/>
  <path id="svg_5" fill="#EBF0F3" d="m234.146,19.616c-7.738,0 -14.01,6.273 -14.01,14.01s6.273,14.011 14.01,14.011s14.01,-6.273 14.01,-14.011s-6.272,-14.01 -14.01,-14.01z"/>
  <circle id="svg_6" fill="#44C4A1" r="83.131" cy="258.129" cx="234.146"/>
  <path id="svg_7" fill="#EBF0F3" d="m283.671,223.578c-3.52,-3.52 -9.224,-3.52 -12.744,0l-49.982,49.991l-23.578,-23.578c-3.52,-3.52 -9.224,-3.52 -12.744,0c-3.52,3.52 -3.52,9.224 0,12.744l29.95,29.95c1.69,1.69 3.978,2.64 6.372,2.64c2.394,0 4.682,-0.951 6.372,-2.64l56.354,-56.363c3.52,-3.52 3.52,-9.223 0,-12.744z"/>
  <g id="svg_8"/>
  <g id="svg_9"/>
  <g id="svg_10"/>
  <g id="svg_11"/>
  <g id="svg_12"/>
  <g id="svg_13"/>
  <g id="svg_14"/>
  <g id="svg_15"/>
  <g id="svg_16"/>
  <g id="svg_17"/>
  <g id="svg_18"/>
  <g id="svg_19"/>
  <g id="svg_20"/>
  <g id="svg_21"/>
  <g id="svg_22"/>
  <ellipse ry="84" rx="83.5" id="svg_27" cy="257.568375" cx="234.146515" stroke-width="1.5" stroke="#CE7975" fill="#CE7975"/>
  <line transform="rotate(-0.22724027931690216 234.14651489259734,262.5683898925785) " stroke="#ffffff" stroke-linecap="undefined" stroke-linejoin="undefined" id="svg_29" y2="306.568377" x2="275.646517" y1="218.568375" x1="192.646515" stroke-width="30" fill="none"/>
  <line stroke="#ffffff" transform="rotate(86.83450317382812 235.14651489257815,260.56838989257807) " stroke-linecap="undefined" stroke-linejoin="undefined" id="svg_31" y2="304.568377" x2="276.646517" y1="216.568375" x1="193.646515" stroke-width="30" fill="none"/>
 </g>
</svg>