<?xml version="1.0" encoding="UTF-8"?>
<svg xmlns="http://www.w3.org/2000/svg" xmlns:xlink="http://www.w3.org/1999/xlink" width="90pt" height="90pt" viewBox="0 0 90 90" version="1.1">
<g id="surface1">
<path style=" stroke:none;fill-rule:nonzero;fill:rgb(14.901961%,27.058824%,49.019608%);fill-opacity:1;" d="M 2.40625 80.035156 L 0.46875 83.832031 C -0.371094 85.46875 -0.0585938 87.457031 1.242188 88.757812 C 2.542969 90.058594 4.527344 90.371094 6.167969 89.53125 L 9.964844 87.59375 Z M 2.40625 80.035156 "/>
<path style=" stroke:none;fill-rule:nonzero;fill:rgb(89.411765%,98.431373%,93.72549%);fill-opacity:1;" d="M 65.226562 7.324219 L 82.664062 24.761719 L 78.011719 29.410156 L 60.570312 11.972656 Z M 65.226562 7.324219 "/>
<path style=" stroke:none;fill-rule:nonzero;fill:rgb(82.745098%,93.72549%,98.431373%);fill-opacity:1;" d="M 79.46875 21.5625 L 82.664062 24.761719 L 78.015625 29.410156 L 74.816406 26.214844 Z M 79.46875 21.5625 "/>
<path style=" stroke:none;fill-rule:nonzero;fill:rgb(94.509804%,83.529412%,61.568627%);fill-opacity:1;" d="M 24.382812 82.757812 C 24.230469 82.847656 24.074219 82.933594 23.921875 83.015625 C 23.585938 83.183594 23.242188 83.328125 22.886719 83.441406 C 22.875 83.445312 22.871094 83.445312 22.867188 83.445312 L 9.964844 87.59375 L 2.40625 80.035156 L 6.554688 67.132812 C 6.554688 67.128906 6.554688 67.125 6.558594 67.113281 C 6.671875 66.757812 6.816406 66.410156 6.984375 66.078125 C 7.066406 65.925781 7.152344 65.769531 7.242188 65.617188 Z M 24.382812 82.757812 "/>
<path style=" stroke:none;fill-rule:nonzero;fill:rgb(87.45098%,45.882353%,64.705882%);fill-opacity:1;" d="M 82.671875 24.773438 L 65.226562 7.328125 L 70.75 1.808594 C 73.160156 -0.601562 77.066406 -0.601562 79.472656 1.808594 L 88.191406 10.527344 C 90.601562 12.933594 90.601562 16.839844 88.191406 19.25 Z M 82.671875 24.773438 "/>
<path style=" stroke:none;fill-rule:nonzero;fill:rgb(86.666667%,34.117647%,56.470588%);fill-opacity:1;" d="M 88.191406 10.527344 L 84.996094 7.328125 C 87.40625 9.738281 87.40625 13.644531 84.996094 16.050781 L 79.472656 21.574219 L 82.671875 24.769531 L 88.195312 19.25 C 90.605469 16.839844 90.605469 12.933594 88.195312 10.527344 Z M 88.191406 10.527344 "/>
<path style=" stroke:none;fill-rule:nonzero;fill:rgb(100%,87.843137%,49.019608%);fill-opacity:1;" d="M 66.390625 17.796875 L 12.066406 72.121094 C 11.710938 71.765625 11.191406 71.566406 10.632812 71.660156 L 8.199219 72.0625 C 7.085938 72.253906 6.121094 71.285156 6.304688 70.171875 L 6.984375 66.078125 C 7.066406 65.925781 7.152344 65.769531 7.242188 65.617188 C 7.542969 65.121094 7.910156 64.648438 8.328125 64.230469 L 60.578125 11.976562 Z M 66.390625 17.796875 "/>
<path style=" stroke:none;fill-rule:nonzero;fill:rgb(100%,76.078431%,31.372549%);fill-opacity:1;" d="M 78.023438 29.421875 L 25.769531 81.671875 C 25.355469 82.089844 24.878906 82.457031 24.382812 82.757812 C 24.230469 82.847656 24.074219 82.933594 23.921875 83.015625 L 19.828125 83.695312 C 18.714844 83.878906 17.746094 82.914062 17.9375 81.800781 L 18.339844 79.367188 C 18.433594 78.808594 18.234375 78.289062 17.878906 77.933594 L 72.203125 23.609375 Z M 78.023438 29.421875 "/>
<path style=" stroke:none;fill-rule:nonzero;fill:rgb(100%,81.568627%,39.215686%);fill-opacity:1;" d="M 66.390625 17.796875 L 12.070312 72.121094 C 12.425781 72.476562 12.617188 72.996094 12.527344 73.554688 L 12.117188 75.988281 C 11.9375 77.101562 12.898438 78.0625 14.011719 77.882812 L 16.445312 77.472656 C 17.003906 77.382812 17.523438 77.574219 17.878906 77.929688 L 72.203125 23.609375 Z M 66.390625 17.796875 "/>
</g>
</svg>
